<?xml version="1.0" encoding="utf-8"?>
<!-- Generator: Adobe Illustrator 16.0.0, SVG Export Plug-In . SVG Version: 6.00 Build 0)  -->
<!DOCTYPE svg PUBLIC "-//W3C//DTD SVG 1.1//EN" "http://www.w3.org/Graphics/SVG/1.1/DTD/svg11.dtd">
<svg version="1.1" id="Layer_1" xmlns="http://www.w3.org/2000/svg" xmlns:xlink="http://www.w3.org/1999/xlink" x="0px" y="0px"
	 width="128px" height="128px" viewBox="0 0 128 128" enable-background="new 0 0 128 128" xml:space="preserve">
<g>
	<g>
		<path fill="#282D33" d="M65.109,105.055h-7.774l-0.027-1.973c-0.042-3.087-0.604-6.149-1.671-9.1
			c-2.374-6.573-6.888-11.754-11.78-13.52l-1.816-0.655l0.591-1.838c2.068-6.428,3.558-13.977,4.308-21.83
			c0.306-3.198,0.48-6.416,0.519-9.565l4,0.049c-0.04,3.26-0.22,6.59-0.537,9.897c-0.71,7.44-2.067,14.634-3.943,20.933
			c5.325,2.625,9.887,8.155,12.42,15.17c0.991,2.741,1.601,5.569,1.82,8.432h1.891v1.806h2V105.055z"/>
	</g>
	<g>
		<path fill="#282D33" d="M70.662,105.055h-7.773v-2.194h2v-1.806h1.89c0.22-2.858,0.829-5.686,1.818-8.431
			c2.538-7.016,7.102-12.545,12.427-15.171c-1.88-6.299-3.238-13.494-3.948-20.933c-0.315-3.311-0.494-6.64-0.533-9.897l4-0.047
			c0.037,3.147,0.211,6.365,0.516,9.565c0.748,7.852,2.24,15.399,4.313,21.827l0.594,1.84l-1.818,0.655
			c-4.893,1.766-9.409,6.946-11.787,13.521c-1.065,2.954-1.628,6.016-1.67,9.099L70.662,105.055z"/>
	</g>
	<g>
		<polygon fill="#282D33" points="82.02,38.563 45.983,38.563 45.983,9.557 49.983,9.557 49.983,34.563 78.02,34.563 78.02,9.557 
			82.02,9.557 		"/>
	</g>
	<g>
		<path fill="#282D33" d="M83.3,47.881H44.702V33.972H83.3V47.881z M48.702,43.881H79.3v-5.909H48.702V43.881z"/>
	</g>
	<g>
		<rect x="46.702" y="33.972" fill="#282D33" width="34.598" height="4"/>
	</g>
	<g>
		<path fill="#282D33" d="M58.08,122.509C28.422,119.522,6.058,94.942,6.058,65.333h4c0,27.547,20.817,50.416,48.422,53.195
			L58.08,122.509z"/>
	</g>
	<g>
		<path fill="#282D33" d="M70.109,122.49l-0.414-3.979c27.506-2.861,48.248-25.724,48.248-53.179h4
			C121.943,94.844,99.659,119.416,70.109,122.49z"/>
	</g>
	<g>
		<rect x="69.251" y="118.421" fill="#282D33" width="46.36" height="4"/>
	</g>
	<g>
		<rect x="12.828" y="118.421" fill="#282D33" width="46.36" height="4"/>
	</g>
	<g>
		<g>
			<path fill="#282D33" d="M14.828,67.729H0V52.994h14.828V67.729z M4,63.729h6.828v-6.735H4V63.729z"/>
		</g>
		<g>
			<path fill="#282D33" d="M128,67.729h-14.828V52.994H128V67.729z M117.172,63.729H124v-6.735h-6.828V63.729z"/>
		</g>
	</g>
	<g>
		<path fill="#282D33" d="M71.416,127.788h-14.83v-14.736h14.83V127.788z M60.586,123.788h6.83v-6.736h-6.83V123.788z"/>
	</g>
	<g>
		<g>
			<path fill="#282D33" d="M15.339,127.788H0.513v-14.736h14.826V127.788z M4.513,123.788h6.826v-6.736H4.513V123.788z"/>
		</g>
		<g>
			<path fill="#282D33" d="M127.492,127.788h-14.828v-14.736h14.828V127.788z M116.664,123.788h6.828v-6.736h-6.828V123.788z"/>
		</g>
	</g>
	<g>
		<rect x="62.001" y="71.415" fill="#282D33" width="4" height="31.703"/>
	</g>
	<g>
		<path fill="#282D33" d="M64.002,73.829c-3.35,0-6.075-2.71-6.075-6.041s2.725-6.041,6.075-6.041c3.35,0,6.075,2.71,6.075,6.041
			S67.352,73.829,64.002,73.829z M64.002,65.747c-1.144,0-2.075,0.916-2.075,2.041s0.931,2.041,2.075,2.041
			c1.145,0,2.075-0.916,2.075-2.041S65.146,65.747,64.002,65.747z"/>
	</g>
	<g>
		<rect x="69.945" y="9.536" fill="#282D33" width="4" height="19.478"/>
	</g>
	<g>
		<rect x="69.945" y="0.212" fill="#282D33" width="4" height="5.049"/>
	</g>
</g>
</svg>
